<svg xmlns="http://www.w3.org/2000/svg" viewBox="0 0 100 100" width="100%" height="100%">
  <defs>
    <linearGradient id="grad" x1="0%" y1="0%" x2="100%" y2="100%">
      <stop offset="0%" stop-color="#6366f1" />
      <stop offset="50%" stop-color="#8b5cf6" />
      <stop offset="100%" stop-color="#a78bfa" />
    </linearGradient>
    <filter id="glow" x="-20%" y="-20%" width="140%" height="140%">
      <feGaussianBlur stdDeviation="3" result="blur" />
      <feMerge>
        <feMergeNode in="blur" />
        <feMergeNode in="SourceGraphic" />
      </feMerge>
    </filter>
  </defs>
  <rect width="100" height="100" rx="24" fill="#0a0e1a" />
  <g filter="url(#glow)">
    <path d="M85 40C85 28.954 76.046 20 65 20H35C23.954 20 15 28.954 15 40V55C15 66.046 23.954 75 35 75C41 75 46.5 71 50 66C53.5 71 59 75 65 75C76.046 75 85 66.046 85 55V40Z" fill="url(#grad)"/>
    <!-- D-pad -->
    <path d="M35 55H28V48H22V40H28V33H35V40H42V48H35V55Z" fill="#ffffff" />
    <!-- Buttons -->
    <circle cx="70" cy="50" r="5" fill="#ffffff" />
    <circle cx="78" cy="40" r="5" fill="#ffffff" />
    <circle cx="70" cy="30" r="5" fill="#ffffff" />
    <circle cx="62" cy="40" r="5" fill="#ffffff" />
  </g>
</svg>
